<svg xmlns="http://www.w3.org/2000/svg" viewBox="0 0 1200 675" role="img" aria-labelledby="title desc">
  <title id="title">Security placeholder</title>
  <desc id="desc">Editorial placeholder image for security stories.</desc>
  <rect width="1200" height="675" fill="#f8fafc"/>
  <rect x="72" y="72" width="1056" height="531" rx="24" fill="#f8fafc" stroke="#cbd5e1"/>
  <rect x="120" y="140" width="260" height="18" rx="9" fill="#475569"/>
  <rect x="120" y="208" width="760" height="42" rx="12" fill="#0f172a" opacity="0.92"/>
  <rect x="120" y="270" width="640" height="42" rx="12" fill="#1e293b" opacity="0.82"/>
  <rect x="120" y="352" width="520" height="18" rx="9" fill="#cbd5e1"/>
  <rect x="120" y="390" width="610" height="18" rx="9" fill="#cbd5e1"/>
  <path d="M930 170l88 34v84c0 74-58 134-88 156-30-22-88-82-88-156v-84l88-34z" fill="#334155"/>
  <path d="M930 214l45 18v53c0 45-29 84-45 101-16-17-45-56-45-101v-53l45-18z" fill="#e2e8f0"/>
</svg>
